<svg xmlns="http://www.w3.org/2000/svg" width="48" height="48" viewBox="0 0 48 48" fill="none" stroke="currentColor" stroke-width="3" stroke-linecap="round" stroke-linejoin="round">
  <path d="M4 13c4-3 9-1 9 3 0 3-4 5-7 3-3-1-4-4-2-6z" />
  <path d="M13 17c9-2 18 0 25 6" />
  <path d="M38 23c5 4 6 11 3 17" />
  <g stroke-width="2">
    <path d="M19 17c-1 5 0 9 3 12" />
    <path d="M25 17c-1 6 0 10 3 13" />
    <path d="M31 20c-1 5 0 9 2 12" />
    <path d="m20 30-3 7 5 5" />
    <path d="m33 33 3 7-5 4" />
  </g>
</svg>
